<svg width="18" height="18" viewBox="0 0 18 18" fill="none" xmlns="http://www.w3.org/2000/svg">
<path d="M0.579791 6.05916C0.56359 6.05321 0.545626 6.06152 0.539735 6.07775C0.231076 6.92773 0.0597715 7.82145 0.0322617 8.72532C0.0317367 8.74257 0.0453544 8.75693 0.0626071 8.75739L3.57541 8.8514C3.59266 8.85187 3.60701 8.83825 3.60759 8.821C3.62464 8.3056 3.72231 7.79605 3.89704 7.31087C3.90289 7.29463 3.89459 7.27668 3.87839 7.27073L0.579791 6.05916Z" fill="#F08784"/>
<path d="M2.31588 3.22279C2.30321 3.21107 2.28343 3.21184 2.27176 3.22455C1.65672 3.8943 1.15292 4.65823 0.779508 5.48732C0.772421 5.50306 0.779504 5.52154 0.795266 5.52857L4.00462 6.9599C4.02038 6.96693 4.03885 6.95984 4.04598 6.94412C4.2602 6.47185 4.54746 6.03626 4.89721 5.65336C4.90885 5.64061 4.90809 5.62085 4.89542 5.60913L2.31588 3.22279Z" fill="#F0C281"/>
<path d="M4.98844 1.28093C4.98121 1.26526 4.96263 1.25842 4.94699 1.26571C4.12733 1.64768 3.37375 2.15776 2.71455 2.77679C2.70197 2.78861 2.70142 2.8084 2.71328 2.82093L5.12823 5.37371C5.14009 5.38625 5.15986 5.38679 5.17248 5.37501C5.54933 5.02299 5.97898 4.73217 6.44582 4.51311C6.46145 4.50578 6.46829 4.48722 6.46106 4.47155L4.98844 1.28093Z" fill="#F0DB7B"/>
<path d="M8.21755 0.506281C8.21688 0.489035 8.20236 0.475586 8.18512 0.476313C7.28163 0.514418 6.38998 0.696188 5.54368 1.01479C5.52753 1.02087 5.51943 1.03893 5.52557 1.05506L6.77572 4.33923C6.78186 4.35536 6.79991 4.36345 6.81608 4.35741C7.29918 4.177 7.80755 4.07337 8.32271 4.05027C8.33995 4.0495 8.3534 4.03499 8.35274 4.01774L8.21755 0.506281Z" fill="#CCF086"/>
<path d="M11.4923 1.02876C11.4983 1.01258 11.49 0.994589 11.4738 0.988651C10.6248 0.677521 9.73154 0.503619 8.82775 0.473481C8.81051 0.472906 8.7961 0.486481 8.79559 0.503733L8.69136 4.01625C8.69085 4.0335 8.70442 4.04789 8.72167 4.04851C9.23702 4.06707 9.74629 4.16622 10.231 4.34236C10.2472 4.34825 10.2652 4.34 10.2712 4.32382L11.4923 1.02876Z" fill="#83F092"/>
<path d="M14.3223 2.77186C14.334 2.75923 14.3333 2.73944 14.3207 2.72774C13.6562 2.1143 12.8984 1.6106 12.0755 1.23558C12.0598 1.22842 12.0413 1.23542 12.0342 1.25115L10.5886 4.4541C10.5815 4.46983 10.5885 4.48833 10.6042 4.49553C11.0729 4.71064 11.505 4.99782 11.8848 5.34663C11.8975 5.35831 11.9173 5.3576 11.929 5.34496L14.3223 2.77186Z" fill="#84EDF0"/>
<path d="M16.271 5.4804C16.2867 5.47328 16.2936 5.45475 16.2865 5.43906C15.91 4.61687 15.4049 3.85989 14.7903 3.19658C14.7786 3.18392 14.7588 3.18324 14.7462 3.19501L12.1773 5.59285C12.1647 5.60463 12.1641 5.6244 12.1758 5.63709C12.5252 6.01628 12.8132 6.44787 13.0291 6.91616C13.0364 6.93184 13.0549 6.93881 13.0706 6.93168L16.271 5.4804Z" fill="#7FCBF0"/>
<path d="M17.0246 8.73366C17.0419 8.73315 17.0554 8.71875 17.0549 8.7015C17.0248 7.79771 16.851 6.90447 16.54 6.05536C16.5341 6.03915 16.5161 6.03089 16.4999 6.03689L13.2047 7.25768C13.1885 7.26367 13.1803 7.28165 13.1861 7.29787C13.3622 7.78256 13.4613 8.29184 13.4798 8.80719C13.4804 8.82444 13.4948 8.83801 13.5121 8.8375L17.0246 8.73366Z" fill="#7CA1F0"/>
<path fill-rule="evenodd" clip-rule="evenodd" d="M15.5416 9.07851C15.535 9.05963 15.5125 9.05177 15.4956 9.06238L11.9908 11.254C11.9685 11.2679 11.9723 11.3013 11.997 11.31L12.7214 11.5637C12.2701 12.3006 11.6307 12.9102 10.8634 13.3261C9.87546 13.8617 8.73448 14.0443 7.62876 13.844C6.52305 13.6436 5.51872 13.0721 4.78159 12.224C4.05131 11.3837 3.62653 10.3216 3.57561 9.21011C3.57482 9.19284 3.56025 9.17938 3.54297 9.1801L0.0591845 9.32643C0.0419718 9.32715 0.0285865 9.3417 0.0293261 9.35891C0.11203 11.2835 0.817965 13.1156 2.08207 14.5701C3.35299 16.0325 5.08459 17.0177 6.99099 17.3632C8.89739 17.7087 10.8646 17.3938 12.5679 16.4704C14.117 15.6306 15.3636 14.3332 16.1415 12.7615L16.8733 13.0178C16.8981 13.0265 16.9219 13.0027 16.9132 12.9779L15.5416 9.07851Z" fill="white"/>
</svg>
