<svg width="24" height="24" viewBox="0 0 24 24" fill="none" xmlns="http://www.w3.org/2000/svg">
<rect width="24" height="24" fill="white" fill-opacity="0.01" style="mix-blend-mode:multiply"/>
<path fill-rule="evenodd" clip-rule="evenodd" d="M13.247 4.13997L13.8564 4.96584L14.8348 4.65588L17.536 3.80015L17.5568 6.63355L17.5644 7.65987L18.5381 7.98421L21.2264 8.87962L19.5779 11.1841L18.9807 12.0189L19.5779 12.8537L21.2264 15.1582L18.5381 16.0536L17.5644 16.3779L17.5568 17.4043L17.536 20.2377L14.8348 19.3819L13.8564 19.072L13.247 19.8978L11.5647 22.1778L9.88238 19.8978L9.27301 19.072L8.29458 19.3819L5.59341 20.2377L5.57255 17.4043L5.56499 16.3779L4.59123 16.0536L1.90296 15.1582L3.55151 12.8537L4.14866 12.0189L3.55151 11.1841L1.90296 8.87962L4.59123 7.98421L5.56499 7.65987L5.57255 6.63355L5.59341 3.80015L8.29458 4.65588L9.27301 4.96584L9.88238 4.13997L11.5647 1.85996L13.247 4.13997ZM18.9651 3.02703L18.9915 6.62299L22.4033 7.75937C22.9603 7.9449 23.1786 8.61667 22.837 9.09416L20.7448 12.0189L22.837 14.9437C23.1786 15.4211 22.9603 16.0929 22.4033 16.2784L18.9915 17.4148L18.9651 21.0108C18.9607 21.5978 18.3893 22.013 17.8296 21.8357L14.4015 20.7497L12.2664 23.6433C11.9179 24.1157 11.2115 24.1157 10.863 23.6433L8.72788 20.7497L5.29975 21.8357C4.74008 22.013 4.16864 21.5978 4.16431 21.0108L4.13784 17.4148L0.726065 16.2784C0.169067 16.0929 -0.0492045 15.4211 0.292368 14.9437L2.3846 12.0189L0.292368 9.09416C-0.0492042 8.61667 0.169067 7.9449 0.726064 7.75938L4.13784 6.62299L4.16431 3.02703C4.16864 2.43997 4.74008 2.02479 5.29975 2.20209L8.72788 3.28812L10.863 0.394497C11.2115 -0.0779087 11.9179 -0.0779091 12.2664 0.394497L14.4015 3.28812L17.8296 2.20209C18.3893 2.02479 18.9607 2.43997 18.9651 3.02703ZM8.56424 8.82676C8.28133 9.09834 8.13987 9.47591 8.13987 9.95946C8.13987 10.443 8.28133 10.8239 8.56424 11.1021C8.85388 11.3803 9.22435 11.5194 9.67566 11.5194C10.127 11.5194 10.4941 11.3803 10.777 11.1021C11.0666 10.8239 11.2114 10.443 11.2114 9.95946C11.2114 9.47591 11.0666 9.09834 10.777 8.82676C10.4941 8.54856 10.127 8.40945 9.67566 8.40945C9.22435 8.40945 8.85388 8.54856 8.56424 8.82676ZM13.8819 9.26141C14.0695 8.9396 13.8332 8.53862 13.456 8.53862C13.2801 8.53862 13.1176 8.63118 13.0301 8.78126L9.56152 14.7312C9.37392 15.053 9.61017 15.454 9.98738 15.454C10.1633 15.454 10.3258 15.3615 10.4132 15.2114L13.8819 9.26141ZM9.03912 9.95946C9.03912 9.38317 9.2513 9.09503 9.67566 9.09503C10.1 9.09503 10.3122 9.38317 10.3122 9.95946C10.3122 10.2575 10.2549 10.4794 10.1404 10.6252C10.0327 10.7643 9.87774 10.8338 9.67566 10.8338C9.2513 10.8338 9.03912 10.5424 9.03912 9.95946ZM12.6765 12.8906C12.3936 13.1621 12.2521 13.5397 12.2521 14.0233C12.2521 14.5068 12.3936 14.8877 12.6765 15.1659C12.9662 15.4441 13.3366 15.5832 13.7879 15.5832C14.2325 15.5832 14.5962 15.4441 14.8791 15.1659C15.1688 14.8877 15.3136 14.5068 15.3136 14.0233C15.3136 13.5397 15.1688 13.1621 14.8791 12.8906C14.5962 12.6124 14.2325 12.4732 13.7879 12.4732C13.3366 12.4732 12.9662 12.6124 12.6765 12.8906ZM13.1413 14.0233C13.1413 13.447 13.3535 13.1588 13.7778 13.1588C14.2022 13.1588 14.4144 13.447 14.4144 14.0233C14.4144 14.5995 14.2022 14.8877 13.7778 14.8877C13.3535 14.8877 13.1413 14.5995 13.1413 14.0233Z" fill="#F9FAFB"/>
</svg>
