<svg width="24" height="24" viewBox="0 0 24 24" fill="none" xmlns="http://www.w3.org/2000/svg">
<rect width="24" height="24" fill="white" fill-opacity="0.01" style="mix-blend-mode:multiply"/>
<path d="M20.2499 12.5705C20.2499 12.383 20.2499 12.1955 20.2499 12.0005C20.2499 11.8055 20.2499 11.618 20.2499 11.423L21.6899 10.163C21.9554 9.92909 22.1296 9.60882 22.1817 9.25885C22.2339 8.90888 22.1606 8.55174 21.9749 8.25055L20.2049 5.25055C20.0734 5.02275 19.8843 4.83353 19.6566 4.7019C19.4288 4.57026 19.1705 4.50082 18.9074 4.50055C18.7444 4.4993 18.5823 4.52463 18.4274 4.57555L16.6049 5.19055C16.2903 4.98145 15.9621 4.79354 15.6224 4.62805L15.2399 2.73805C15.1714 2.39275 14.9835 2.08258 14.7093 1.86183C14.4351 1.64107 14.0919 1.5238 13.7399 1.53055H10.2299C9.87797 1.5238 9.53483 1.64107 9.26061 1.86183C8.98638 2.08258 8.79853 2.39275 8.72995 2.73805L8.34745 4.62805C8.0054 4.7935 7.67467 4.98141 7.35745 5.19055L5.57245 4.54555C5.41592 4.50477 5.25383 4.48957 5.09245 4.50055C4.8294 4.50082 4.57105 4.57026 4.34332 4.7019C4.11558 4.83353 3.92647 5.02275 3.79495 5.25055L2.02495 8.25055C1.84989 8.55129 1.78483 8.90354 1.84093 9.24697C1.89703 9.5904 2.07079 9.90364 2.33245 10.133L3.74995 11.4305C3.74995 11.618 3.74995 11.8055 3.74995 12.0005C3.74995 12.1955 3.74995 12.383 3.74995 12.578L2.33245 13.8381C2.0634 14.069 1.88489 14.3879 1.82859 14.738C1.7723 15.0881 1.84187 15.4469 2.02495 15.7506L3.79495 18.7505C3.92647 18.9784 4.11558 19.1676 4.34332 19.2992C4.57105 19.4308 4.8294 19.5003 5.09245 19.5005C5.25546 19.5018 5.41758 19.4765 5.57245 19.4256L7.39495 18.8106C7.7096 19.0196 8.03783 19.2076 8.37745 19.3731L8.75995 21.2631C8.82853 21.6083 9.01638 21.9185 9.29061 22.1393C9.56483 22.36 9.90797 22.4773 10.2599 22.4706H13.7999C14.1519 22.4773 14.4951 22.36 14.7693 22.1393C15.0435 21.9185 15.2314 21.6083 15.2999 21.2631L15.6824 19.3731C16.0245 19.2076 16.3552 19.0197 16.6724 18.8106L18.4874 19.4256C18.6423 19.4765 18.8044 19.5018 18.9674 19.5005C19.2305 19.5003 19.4888 19.4308 19.7166 19.2992C19.9443 19.1676 20.1334 18.9784 20.2649 18.7505L21.9749 15.7506C22.15 15.4498 22.2151 15.0976 22.159 14.7541C22.1029 14.4107 21.9291 14.0975 21.6674 13.868L20.2499 12.5705ZM18.9074 18.0005L16.3349 17.1306C15.7327 17.6406 15.0445 18.0394 14.3024 18.3081L13.7699 21.0006H10.2299L9.69745 18.3381C8.96126 18.0617 8.27673 17.6637 7.67245 17.1605L5.09245 18.0005L3.32245 15.0006L5.36245 13.2006C5.22377 12.4242 5.22377 11.6294 5.36245 10.8531L3.32245 9.00055L5.09245 6.00055L7.66495 6.87055C8.26715 6.36047 8.9554 5.96174 9.69745 5.69305L10.2299 3.00055H13.7699L14.3024 5.66305C15.0386 5.93937 15.7232 6.33741 16.3274 6.84055L18.9074 6.00055L20.6774 9.00055L18.6374 10.8005C18.7761 11.5769 18.7761 12.3717 18.6374 13.1481L20.6774 15.0006L18.9074 18.0005Z" fill="white"/>
<path d="M11.9999 16.5006C11.1099 16.5006 10.2399 16.2366 9.49988 15.7422C8.75986 15.2477 8.18308 14.5449 7.84249 13.7226C7.50189 12.9004 7.41278 11.9956 7.58641 11.1226C7.76005 10.2497 8.18863 9.44791 8.81797 8.81857C9.4473 8.18923 10.2491 7.76065 11.122 7.58702C11.995 7.41338 12.8998 7.5025 13.722 7.84309C14.5443 8.18369 15.2471 8.76046 15.7416 9.50048C16.236 10.2405 16.4999 11.1105 16.4999 12.0006C16.506 12.5932 16.3937 13.181 16.1697 13.7297C15.9456 14.2784 15.6144 14.7769 15.1953 15.1959C14.7763 15.615 14.2778 15.9462 13.7291 16.1703C13.1804 16.3943 12.5926 16.5066 11.9999 16.5006ZM11.9999 9.00055C11.6035 8.99131 11.2092 9.0626 10.8411 9.21009C10.4729 9.35759 10.1385 9.57823 9.85806 9.85866C9.57762 10.1391 9.35698 10.4735 9.20949 10.8417C9.06199 11.2098 8.99071 11.6041 8.99995 12.0006C8.99071 12.397 9.06199 12.7913 9.20949 13.1594C9.35698 13.5276 9.57762 13.862 9.85806 14.1424C10.1385 14.4229 10.4729 14.6435 10.8411 14.791C11.2092 14.9385 11.6035 15.0098 11.9999 15.0006C12.3964 15.0098 12.7907 14.9385 13.1588 14.791C13.527 14.6435 13.8614 14.4229 14.1418 14.1424C14.4223 13.862 14.6429 13.5276 14.7904 13.1594C14.9379 12.7913 15.0092 12.397 14.9999 12.0006C15.0092 11.6041 14.9379 11.2098 14.7904 10.8417C14.6429 10.4735 14.4223 10.1391 14.1418 9.85866C13.8614 9.57823 13.527 9.35759 13.1588 9.21009C12.7907 9.0626 12.3964 8.99131 11.9999 9.00055Z" fill="white"/>
</svg>
