<svg width="23" height="24" viewBox="0 0 23 24" fill="none" xmlns="http://www.w3.org/2000/svg">
<path d="M9.31275 22.8033L9.31277 22.8033L9.31406 22.8016C9.41937 22.6686 9.4582 22.4969 9.42489 22.3358L9.42456 22.3343L7.74431 14.7957H8.65447L18.296 18.7393C18.4721 19.613 19.2444 20.2739 20.1739 20.2739C21.2381 20.2739 22.1 19.412 22.1 18.3478V2.82609C22.1 1.76195 21.2381 0.9 20.1739 0.9C19.2442 0.9 18.4722 1.56111 18.2918 2.43448L8.6499 6.37826H5.1087C2.78912 6.37826 0.9 8.26738 0.9 10.587C0.9 12.2857 1.9123 13.7502 3.36937 14.4148L5.18446 22.5736C5.18447 22.5737 5.18449 22.5738 5.18451 22.5739C5.24058 22.8312 5.46958 23.0085 5.72957 23.0085H8.87957C9.04703 23.0085 9.20745 22.9307 9.31275 22.8033ZM2.01304 10.587C2.01304 8.88001 3.40175 7.4913 5.1087 7.4913H8.20435V13.6826H5.1087C3.40175 13.6826 2.01304 12.2939 2.01304 10.587ZM6.60345 14.7957L8.17973 21.9H6.17046L4.58522 14.7576C4.7562 14.7814 4.92934 14.7957 5.1087 14.7957H6.60345ZM9.31739 13.8661V7.30779L18.2478 3.65524V17.5187L9.31739 13.8661ZM20.987 18.3478C20.987 18.7948 20.6209 19.1609 20.1739 19.1609C19.727 19.1609 19.3609 18.7948 19.3609 18.3478V18.3433V2.83065V2.82609C19.3609 2.37914 19.727 2.01304 20.1739 2.01304C20.6209 2.01304 20.987 2.37914 20.987 2.82609V18.3478Z" fill="#F9FAFB" stroke="#F9FAFB" stroke-width="0.2"/>
</svg>
