<svg width="24" height="24" viewBox="0 0 24 24" fill="none" xmlns="http://www.w3.org/2000/svg">
<rect width="24" height="24" fill="white" fill-opacity="0.01" style="mix-blend-mode:multiply"/>
<path d="M15 15.135L13.8075 13.9425L12.75 15L15 17.25L18.75 13.5L17.6925 12.4425L15 15.135Z" fill="white"/>
<path d="M11.25 17.25H8.25C7.83585 17.25 7.5 16.9142 7.5 16.5V7.5C7.5 7.08585 7.83585 6.75 8.25 6.75H15.75C16.1642 6.75 16.5 7.08585 16.5 7.5V12H15V8.25H9V15.75H11.25V17.25Z" fill="white"/>
<path d="M12 0.75C11.8694 0.75 11.7389 0.78405 11.6221 0.85215L2.62207 6.10215C2.39175 6.23655 2.25 6.48322 2.25 6.75V17.25C2.25 17.5168 2.39175 17.7635 2.62207 17.8979L11.6221 23.1479C11.7389 23.216 11.8694 23.25 12 23.25C12.1306 23.25 12.2611 23.216 12.3779 23.1479L20.6279 18.3354L19.8721 17.0398L12 21.6318L3.75 16.8194V7.18087L12 2.36828L20.25 7.18073V12.75H21.75V6.75C21.75 6.48322 21.6082 6.23655 21.3779 6.10215L12.3779 0.85215C12.2611 0.78405 12.1306 0.75 12 0.75Z" fill="white"/>
</svg>
